<?xml version="1.0"?>
<svg version="1.1" xmlns="http://www.w3.org/2000/svg" width="400px" height="200px" style="border: dashed 2px #aaa"><path fill="#07eded" d="M42.736,95.174l-0.266,2.204c-0.076,0.646-0.494,0.798-1.178,0.798l-6.878,0l0,21.47c0,0.722-0.152,0.874-0.798,0.874l-3.344,0c-0.684,0-0.798-0.152-0.798-0.836l0-21.508l-7.106,0c-0.646,0-0.874-0.266-0.874-0.912l0-2.242c0-0.57,0.266-0.798,0.836-0.798l19.228,0c0.988,0,1.254,0.304,1.178,0.95z M63.617,111.248c0,0.912-0.304,1.102-1.254,1.102l-11.134,0c0.304,2.926,2.432,4.94,5.434,4.94c1.596,0,3.268-0.38,4.674-0.912c0.152-0.038,0.266-0.114,0.418-0.114c0.266,0,0.456,0.152,0.532,0.456l0.532,1.938c0.038,0.19,0.076,0.342,0.076,0.456c0,0.266-0.152,0.456-0.608,0.646c-1.862,0.836-4.408,1.216-6.384,1.216c-5.966,0-9.5-3.8-9.5-9.728c0-5.7,3.762-9.652,9.424-9.652c2.318,0,4.218,0.874,5.548,2.28c1.748,1.824,2.242,4.218,2.242,6.802l0,0.57z M59.095,109.348l0-0.418c-0.076-1.976-1.216-3.8-3.534-3.8c-2.47,0-3.952,1.976-4.256,4.218l7.79,0z M80.812,119.38c0,0.38-0.19,0.57-0.57,0.722c-1.178,0.494-2.736,0.874-4.256,0.874c-1.938,0-3.61-0.494-4.56-1.596c-1.178-1.33-1.216-2.888-1.216-5.662l0-8.474l-1.786,0c-0.722,0-0.836-0.152-0.836-0.95l0-1.444c0-0.456,0.228-0.76,0.684-0.76l1.938,0l0-4.142c0-0.646,0.342-0.836,0.95-0.912l2.736-0.342l0.19,0c0.494,0,0.722,0.266,0.722,0.836l0,4.56l4.294,0c0.456,0,0.722,0.152,0.722,0.646l0,1.786c0,0.456-0.304,0.722-0.76,0.722l-4.256,0l0,8.702c0,1.14,0.076,1.976,0.494,2.584c0.342,0.494,0.874,0.798,1.786,0.798c0.95,0,1.748-0.228,2.432-0.456c0.152-0.038,0.266-0.076,0.38-0.076c0.266,0,0.418,0.152,0.494,0.456l0.38,1.9c0.038,0.114,0.038,0.152,0.038,0.228z M102.643,119.76c0,0.57-0.114,0.76-0.608,0.76l-3.344,0c-0.532,0-0.646-0.152-0.646-0.76l0-10.564c0-2.052-0.57-3.572-2.85-3.572c-1.482,0-3.382,0.798-4.56,1.824l0,12.312c0,0.57-0.152,0.76-0.722,0.76l-3.268,0c-0.456,0-0.608-0.19-0.608-0.684l0-25.118c0-0.684,0.304-0.874,0.836-0.95l2.622-0.342c0.152-0.038,0.342-0.038,0.494-0.038c0.418,0,0.646,0.19,0.646,0.722l0,9.538c1.596-1.33,3.99-2.052,6.004-2.052c4.256,0,6.004,2.698,6.004,6.802l0,11.362z M142.885,119.912c0,0.38-0.19,0.608-0.684,0.608l-3.382,0c-0.798,0-1.064-0.304-1.292-0.912l-1.976-5.586l-9.614,0l-1.976,5.7c-0.152,0.494-0.418,0.798-1.026,0.798l-3.382,0c-0.38,0-0.532-0.19-0.532-0.494c0-0.114,0-0.266,0.076-0.418l9.272-24.624c0.19-0.456,0.456-0.76,1.026-0.76l3.04,0c0.57,0,0.912,0.266,1.064,0.684l9.31,24.51c0.076,0.19,0.076,0.342,0.076,0.494z M134.259,110.336l-2.698-8.018c-0.342-1.064-0.57-1.862-0.76-2.47l-0.076,0c-0.19,0.646-0.418,1.444-0.798,2.508l-2.698,7.98l7.03,0z M164.222,119.57c0,0.646-0.38,0.95-0.836,0.95l-2.47,0c-0.608,0-0.874-0.304-0.912-0.76l-0.076-1.026c-1.064,1.216-3.192,2.242-5.168,2.242c-5.51,0-8.018-4.37-8.018-9.462c0-5.32,2.964-9.956,8.322-9.956c1.71,0,3.496,0.684,4.56,1.786l0-8.55c0-0.684,0.19-0.95,0.798-1.026l2.812-0.38c0.038,0,0.342-0.038,0.38-0.038c0.456,0,0.608,0.19,0.608,0.76l0,25.46z M159.624,115.352l0-8.246c-0.76-1.026-2.204-1.862-3.648-1.862c-3.078,0-4.446,2.888-4.446,6.004s1.14,6.004,4.218,6.004c1.406,0,3.116-0.95,3.876-1.9z M189.169,119.798c0,0.456-0.304,0.722-0.76,0.722l-1.824,0c-1.976,0-2.85-0.95-3.116-2.242l-0.076,0c-0.95,1.406-3.42,2.698-5.51,2.698c-5.358,0-7.79-4.408-7.79-9.348c0-6.574,3.952-10.032,8.208-10.032c2.014,0,3.914,0.912,4.864,2.204l0.076-1.026c0.038-0.418,0.342-0.684,0.798-0.684l2.66,0c0.494,0,0.798,0.266,0.798,0.836l0,13.186c0,0.532,0.076,0.912,0.228,1.102c0.114,0.114,0.266,0.152,0.456,0.152l0.304,0c0.456,0,0.684,0.152,0.684,0.646l0,1.786z M182.899,114.63l0-7.334c-0.76-1.102-2.318-1.938-3.762-1.938c-2.318,0-4.294,1.976-4.294,5.966c0,3.192,1.216,5.89,4.028,5.89c1.862,0,3.458-1.406,4.028-2.584z M222.248,119.57c0,0.684-0.266,0.95-0.912,0.95l-2.66,0c-0.684,0-0.988-0.266-0.988-0.95l0-10.412c0-2.052-0.532-3.61-2.85-3.61c-1.444,0-3.116,0.76-4.294,1.71c0.076,0.342,0.152,5.434,0.152,5.966l0,6.346c0,0.684-0.266,0.95-0.912,0.95l-2.508,0c-0.684,0-0.988-0.266-0.988-0.95l0-10.412c0-2.014-0.418-3.61-2.736-3.61c-1.482,0-3.002,0.836-4.218,1.9l0,12.122c0,0.684-0.304,0.95-0.95,0.95l-2.66,0c-0.684,0-0.988-0.266-0.988-0.95l0-16.606c0-0.608,0.342-0.874,0.912-0.874l2.47,0c0.57,0,0.912,0.19,0.95,0.722l0.038,0.95c1.558-1.368,3.61-2.166,5.586-2.166c2.318,0,3.952,1.026,4.826,2.47c1.71-1.634,4.18-2.47,6.498-2.47c2.774,0,4.522,1.368,5.32,2.85c0.722,1.406,0.912,3.078,0.912,5.51l0,9.614z"/><path fill="#" d=""/></svg>
